PathFileType	4	(X/Y/Z)	SUBJ59_0_static_RCNL2025.trc
DataRate	CameraRate	NumFrames	NumMarkers	Units	OrigDataRate	OrigDataStartFrame	OrigNumFrames
100	100	13	25	mm	100	58	72
Frame#	Time	R_Shoulder			L_Shoulder			C7			J_Notch			R_Elbow			L_Elbow			R_Wrist			L_Wrist			R_Asis			L_Asis			Sacral			Thoracic			Sternum			R_Thigh_Lateral			R_Knee_Lateral			R_Shank_Lateral			R_Ankle_Lateral			R_Heel			R_Toe			L_Thigh_Lateral			L_Knee_Lateral			L_Shank_Lateral			L_Ankle_Lateral			L_Heel			L_Toe		
		X1	Y1	Z1	X2	Y2	Z2	X3	Y3	Z3	X4	Y4	Z4	X5	Y5	Z5	X6	Y6	Z6	X7	Y7	Z7	X8	Y8	Z8	X9	Y9	Z9	X10	Y10	Z10	X11	Y11	Z11	X12	Y12	Z12	X13	Y13	Z13	X14	Y14	Z14	X15	Y15	Z15	X16	Y16	Z16	X17	Y17	Z17	X18	Y18	Z18	X19	Y19	Z19	X20	Y20	Z20	X21	Y21	Z21	X22	Y22	Z22	X23	Y23	Z23	X24	Y24	Z24	X25	Y25	Z25
58	0.57000000	-247.160568	1458.526245	-16.218067	-259.468536	1489.322754	-419.197235	-356.734589	1557.317139	-209.300568	-194.114777	1466.472290	-223.158539	-285.904297	1142.011841	72.047485	-246.038391	1146.262451	-516.346985	-257.033272	863.621918	75.845533	-184.423553	888.402161	-486.892441	-180.629074	997.881592	-99.667236	-180.275833	995.354797	-327.850769	-395.993103	1032.079712	-218.075333	-412.819580	1340.887939	-235.460831	-131.836914	1276.300903	-233.395325	-291.883667	609.107300	-11.158937	-304.102081	517.845947	-63.196388	-345.737488	321.640717	18.949284	-375.488312	69.449722	-88.306595	-411.117981	57.351940	-135.525314	-211.991577	44.231010	-120.064339	-303.505463	612.015015	-402.677948	-307.471680	503.806702	-343.064484	-343.412476	309.138672	-404.659943	-372.801086	81.909042	-322.161011	-413.635468	58.590912	-266.993591	-209.810303	39.192974	-295.449890
59	0.58000000	-247.184860	1458.535645	-16.203680	-259.473816	1489.291748	-419.178925	-356.749054	1557.399536	-209.258835	-194.112091	1466.454590	-223.144501	-285.919891	1142.004761	72.055031	-246.035492	1146.383301	-516.740906	-256.967216	863.650818	75.880188	-184.446404	888.401184	-486.882538	-180.638702	997.842041	-99.669670	-180.263168	995.377014	-327.886475	-395.925293	1032.041138	-218.111893	-412.813751	1340.948608	-235.482819	-131.724121	1276.314819	-233.333481	-291.862488	609.068970	-11.316354	-304.101532	517.920349	-63.123550	-345.794495	321.702759	18.999233	-375.514252	69.440887	-88.403877	-411.119019	57.351521	-135.526093	-211.979202	44.181461	-120.091393	-303.545105	612.096741	-402.666382	-307.488586	503.810303	-343.078369	-343.435120	309.149048	-404.691681	-372.746155	81.884995	-322.213898	-413.697998	58.580872	-267.077026	-209.816116	39.235916	-295.452148
60	0.59000000	-247.157593	1458.502075	-16.233446	-259.463959	1489.371582	-419.180023	-356.692963	1557.419189	-209.258255	-194.109299	1466.445312	-223.161942	-285.775177	1142.033203	71.969360	-246.030518	1146.250854	-516.438293	-256.908386	863.650696	75.900873	-184.443497	888.383545	-486.854218	-180.626678	997.789429	-99.630562	-180.211182	995.461975	-327.898987	-395.978149	1032.043091	-218.097168	-412.804871	1340.952637	-235.496323	-131.819016	1276.319458	-233.391327	-291.955688	609.205872	-11.217909	-304.146454	517.923218	-63.175457	-345.752655	321.670288	18.958694	-375.450104	69.409111	-88.354874	-411.121246	57.348461	-135.512527	-211.986145	44.224964	-120.069603	-303.560791	612.126892	-402.631989	-307.483582	503.764984	-342.997070	-343.485687	309.108521	-404.698181	-372.739777	81.874947	-322.211578	-413.702179	58.577053	-267.080933	-209.757904	39.195126	-295.449219
61	0.60000000	-247.070160	1458.605469	-16.258738	-259.426758	1489.354492	-419.187195	-356.720154	1557.392944	-209.313354	-194.128036	1466.446167	-223.138931	-285.754120	1142.034912	71.961929	-245.894089	1146.248779	-516.286194	-256.847435	863.674805	75.861906	-184.376328	888.361694	-486.854614	-180.583740	997.792847	-99.573708	-180.108368	995.406067	-327.881348	-395.960846	1032.091309	-218.232452	-412.803741	1340.950928	-235.497070	-131.730865	1276.314331	-233.335052	-291.930389	609.134827	-11.276257	-304.214691	517.863953	-63.145435	-345.796021	321.712921	18.993185	-375.457306	69.464088	-88.327255	-411.100952	57.312984	-135.549393	-211.926788	44.274010	-120.101936	-303.533936	612.077332	-402.669128	-307.480499	503.809418	-343.055573	-343.488037	309.168884	-404.701599	-372.740540	81.911369	-322.189056	-413.638428	58.599499	-266.995087	-209.766830	39.241791	-295.487701
62	0.61000000	-247.101410	1458.567261	-16.268715	-259.431000	1489.378174	-419.174622	-356.723083	1557.390869	-209.316757	-194.133209	1466.443970	-223.111511	-285.773438	1142.050415	71.976921	-245.882019	1146.234253	-516.271240	-256.830719	863.683075	75.837423	-184.434937	888.370514	-486.873932	-180.544388	997.808899	-99.594620	-180.067490	995.512695	-328.217590	-395.965424	1032.101440	-218.128876	-412.801300	1340.948120	-235.500702	-131.711823	1276.290649	-233.357925	-291.896454	609.049561	-11.258856	-304.246674	517.850769	-63.139286	-345.820801	321.761444	18.989012	-375.475494	69.447121	-88.332703	-411.077911	57.328938	-135.519424	-211.970535	44.227493	-120.084053	-303.566925	612.094482	-402.646881	-307.550018	503.820404	-343.119965	-343.531311	309.182190	-404.726990	-372.772217	81.914566	-322.162292	-413.694183	58.592319	-267.076233	-209.775726	39.252941	-295.494049
63	0.62000000	-246.970352	1458.551392	-16.349882	-259.358002	1489.393921	-419.206543	-356.661652	1557.276123	-209.294128	-194.107269	1466.483521	-223.178802	-285.691010	1142.052856	72.012840	-245.878967	1146.354736	-516.733887	-256.701584	863.674713	75.858770	-184.413803	888.312164	-486.891174	-180.449738	997.834290	-99.550446	-180.120331	995.330200	-327.859406	-395.970490	1032.008301	-218.215591	-412.777740	1340.948364	-235.615051	-131.714493	1276.307373	-233.364212	-291.982086	609.091736	-11.186062	-304.149567	517.914062	-63.125504	-345.881897	321.769073	18.964293	-375.445526	69.401657	-88.356125	-411.099213	57.308331	-135.537262	-211.985062	44.194885	-120.087852	-303.597839	612.034485	-402.611847	-307.493958	503.811432	-343.056732	-343.544739	309.175873	-404.655273	-372.823303	81.925072	-322.126373	-413.721558	58.670715	-267.030029	-209.821762	39.266979	-295.438232
64	0.63000000	-246.965576	1458.557251	-16.346710	-259.349304	1489.339722	-419.166351	-356.870056	1557.556152	-209.276291	-194.086685	1466.506104	-223.179291	-285.681976	1141.989868	71.995605	-245.811371	1146.277344	-516.423767	-256.669304	863.685059	75.841274	-184.417351	888.353333	-486.942062	-180.514877	997.872864	-99.652031	-180.156891	995.349915	-327.782440	-395.966461	1032.025635	-218.221848	-412.775604	1340.949097	-235.620377	-131.687927	1276.383667	-233.311874	-291.964050	609.035400	-11.239360	-304.162872	517.922485	-63.202946	-345.887695	321.766785	18.970587	-375.448334	69.446732	-88.342354	-411.116760	57.348839	-135.529327	-211.988434	44.226273	-120.068008	-303.593292	612.035034	-402.629852	-307.555084	503.806030	-343.093872	-343.466461	309.166870	-404.718536	-372.748322	81.909897	-322.194275	-413.724701	58.677944	-267.011078	-209.865265	39.216793	-295.395325
65	0.64000000	-246.922043	1458.556885	-16.376511	-259.351135	1489.374023	-419.159363	-356.707184	1557.474731	-209.337997	-193.990540	1466.467041	-223.151657	-285.666229	1142.022949	71.994080	-245.777618	1146.339722	-516.338989	-256.662949	863.704285	75.839399	-184.370201	888.356354	-486.912292	-180.500214	997.829834	-99.576469	-180.147842	995.367981	-327.805054	-395.975128	1032.158813	-218.098038	-412.724304	1340.940552	-235.550125	-131.569916	1276.390625	-233.268051	-291.961426	608.987305	-11.261314	-304.273865	517.853577	-63.210907	-345.877838	321.708160	18.947510	-375.465088	69.439125	-88.338783	-411.134247	57.337700	-135.523087	-212.001389	44.225487	-120.051582	-303.559143	612.125854	-402.624115	-307.494019	503.832214	-343.091675	-343.530212	309.167419	-404.664215	-372.799530	81.935867	-322.129120	-413.642395	58.609814	-266.995636	-209.785522	39.263893	-295.454865
66	0.65000000	-246.867813	1458.558228	-16.353027	-259.334717	1489.407593	-419.172577	-356.723633	1557.508911	-209.343643	-194.083466	1466.524170	-223.100754	-285.657562	1142.180176	72.026970	-245.782257	1146.469604	-516.754089	-256.692749	863.690430	75.877728	-184.382629	888.335724	-486.955399	-180.392029	997.807617	-99.451782	-180.127365	995.375732	-327.839050	-395.973877	1032.195190	-218.192505	-412.721558	1340.940063	-235.546021	-131.645416	1276.434326	-233.371262	-291.961365	609.098938	-11.222435	-304.441284	517.772766	-63.226517	-345.856293	321.725952	18.919912	-375.447021	69.446205	-88.336143	-411.102173	57.325802	-135.543655	-211.944916	44.226799	-120.011971	-303.472443	612.097778	-402.705261	-307.535126	503.927643	-343.166595	-343.470581	309.169220	-404.728699	-372.737396	81.983025	-322.170746	-413.689667	58.613922	-267.065216	-209.770615	39.268478	-295.471893
67	0.66000000	-246.874786	1458.568237	-16.306923	-259.266907	1489.382690	-419.143860	-356.722565	1557.527954	-209.345001	-193.907639	1466.522949	-223.241135	-285.566895	1142.139893	71.953140	-245.789352	1146.316162	-516.397278	-256.539146	863.702911	75.803318	-184.318130	888.339386	-486.976059	-180.288406	997.869812	-99.481834	-180.141861	995.316284	-327.805359	-396.040985	1032.181030	-218.166656	-412.716736	1340.963501	-235.547592	-131.572296	1276.374756	-233.279175	-292.011810	609.155457	-11.185338	-304.536102	517.782837	-63.233349	-345.821899	321.792877	18.776665	-375.471680	69.481621	-88.320404	-411.114990	57.362595	-135.523911	-211.970505	44.254433	-119.997963	-303.505066	612.100220	-402.692169	-307.466522	503.922394	-343.112518	-343.452789	309.155121	-404.677887	-372.711121	81.924561	-322.214600	-413.697662	58.617615	-267.070251	-209.822464	39.239765	-295.450348
68	0.67000000	-246.866150	1458.562866	-16.325193	-259.184601	1489.401978	-419.155243	-356.769165	1557.573853	-209.345947	-193.921844	1466.555054	-223.149017	-285.618591	1142.162720	72.004868	-245.784088	1146.284180	-516.275635	-256.470650	863.749603	75.781799	-184.301102	888.400726	-486.966217	-180.237762	997.894348	-99.487816	-180.123306	995.376770	-327.866394	-396.037231	1032.197998	-218.172043	-412.711426	1340.940796	-235.558044	-131.560944	1276.378418	-233.296646	-292.004456	609.164429	-11.198882	-304.539246	517.790283	-63.233284	-345.806854	321.799988	18.782516	-375.434601	69.474586	-88.340561	-411.118073	57.378696	-135.517105	-211.995956	44.224831	-120.060844	-303.470520	612.153687	-402.683258	-307.456238	503.929230	-343.082001	-343.475220	309.177368	-404.709442	-372.781067	81.989700	-322.160248	-413.696625	58.618492	-267.067535	-209.790390	39.205006	-295.463165
69	0.68000000	-246.890793	1458.562988	-16.287666	-259.159332	1489.430054	-419.165100	-356.766357	1557.539185	-209.355484	-193.901611	1466.515747	-223.165146	-285.598816	1142.130127	71.976364	-245.756256	1146.284912	-516.398499	-256.484673	863.715515	75.755676	-184.333214	888.340576	-486.977585	-180.329559	997.907104	-99.388626	-180.128555	995.392395	-327.776611	-396.042175	1032.154297	-218.176331	-412.721741	1340.939331	-235.549057	-131.560730	1276.379517	-233.278778	-291.983765	609.124390	-11.207791	-304.602692	517.667114	-63.195324	-345.857941	321.681946	18.931107	-375.439575	69.460121	-88.334663	-411.120880	57.368355	-135.518097	-212.001434	44.223305	-120.054192	-303.469391	612.136719	-402.707611	-307.467926	503.887390	-343.101166	-343.390900	309.156799	-404.628571	-372.810974	81.970848	-322.125122	-413.635956	58.635525	-266.985016	-209.773224	39.262012	-295.469177
70	0.69000000	-246.893921	1458.577759	-16.293179	-259.185059	1489.395996	-419.167755	-356.717773	1557.496948	-209.434845	-193.901413	1466.495972	-223.229507	-285.491943	1142.127563	71.992500	-245.699005	1146.322144	-516.424622	-256.454681	863.674835	75.730524	-184.316017	888.363495	-487.001129	-180.427826	997.848816	-99.542274	-180.114502	995.402222	-327.791168	-396.052216	1032.065796	-218.162231	-412.714844	1340.940308	-235.558990	-131.541748	1276.431274	-233.308258	-292.003448	609.155884	-11.207183	-304.388428	517.876648	-63.135937	-345.822418	321.783539	18.791937	-375.471039	69.468285	-88.305725	-411.120422	57.366760	-135.518585	-212.008179	44.241459	-120.048851	-303.471985	612.141235	-402.689941	-307.470215	503.883423	-343.103485	-343.435120	309.162628	-404.676239	-372.751678	81.970772	-322.174255	-413.635620	58.607769	-266.992767	-209.806076	39.195507	-295.458069
